<svg xmlns="http://www.w3.org/2000/svg" version="1.1" xmlns:xlink="http://www.w3.org/1999/xlink" xmlns:svgjs="http://svgjs.dev/svgjs" width="1500" height="939" viewBox="0 0 1500 939"><g transform="matrix(1,0,0,1,-0.9090909090909918,-1.5145161290323017)"><svg viewBox="0 0 396 248" data-background-color="#ffffff" preserveAspectRatio="xMidYMid meet" height="939" width="1500" xmlns="http://www.w3.org/2000/svg" xmlns:xlink="http://www.w3.org/1999/xlink"><g id="tight-bounds" transform="matrix(1,0,0,1,0.2400000000000091,0.4000000000000057)"><svg viewBox="0 0 395.52 247.2" height="247.2" width="395.52"><g><svg></svg></g><g><svg viewBox="0 0 395.52 247.2" height="247.2" width="395.52"><g transform="matrix(1,0,0,1,75.54432,100.61864124753974)"><svg viewBox="0 0 244.43135999999998 45.962717504920505" height="45.962717504920505" width="244.43135999999998"><g><svg viewBox="0 0 244.43135999999998 45.962717504920505" height="45.962717504920505" width="244.43135999999998"><g><svg viewBox="0 0 244.43136 45.96271750492051" height="45.962717504920505" width="244.43135999999998"><g><svg viewBox="0 0 244.43136 45.96271750492051" height="45.96271750492051" width="244.43136"><g id="textblocktransform"><svg viewBox="0 0 244.43136 45.96271750492051" height="45.96271750492051" width="244.43136" id="textblock"><g><svg viewBox="0 0 244.43136 45.96271750492051" height="45.96271750492051" width="244.43136"><g transform="matrix(1,0,0,1,0,0)"><svg width="244.43136" viewBox="1.7 -36.41 198.13000000000002 37.26" height="45.96271750492051" data-palette-color="#0284c7"><path d="M2.5 0.15L2.5 0.15Q2.15 0.15 1.93-0.18 1.7-0.5 1.7-0.85L1.7-0.85Q1.75-1.6 2.08-1.68 2.4-1.75 2.85-1.75L2.85-1.75Q4.25-1.75 4.78-2.23 5.3-2.7 5.38-3.5 5.45-4.3 5.45-5.15L5.45-5.15 5.45-16.6Q5.45-17.5 5.38-18.28 5.3-19.05 4.8-19.53 4.3-20 2.9-20L2.9-20Q2.45-20 2.08-20.13 1.7-20.25 1.7-21L1.7-21Q1.7-21.75 2.5-21.9L2.5-21.9Q4.8-22.25 6.03-22.6 7.25-22.95 7.88-23.2 8.5-23.45 9-23.5L9-23.5Q9.4-23.55 9.68-23.35 9.95-23.15 9.95-22.55L9.95-22.55 9.95-19.4 10.1-19.4Q11.1-20.35 12.05-21.23 13-22.1 14.35-22.68 15.7-23.25 17.8-23.25L17.8-23.25Q20.25-23.25 22-22.23 23.75-21.2 24.55-19.4L24.55-19.4 24.65-19.4Q25.65-20.35 26.75-21.23 27.85-22.1 29.35-22.68 30.85-23.25 32.95-23.25L32.95-23.25Q36.35-23.25 38.35-21.2 40.35-19.15 40.35-15.8L40.35-15.8 40.35-5.15Q40.35-4.3 40.43-3.5 40.5-2.7 41.03-2.23 41.55-1.75 42.95-1.75L42.95-1.75Q43.4-1.75 43.73-1.68 44.05-1.6 44.1-0.85L44.1-0.85Q44.1-0.5 43.9-0.18 43.7 0.15 43.3 0.15L43.3 0.15Q41.85 0.05 40.63 0.03 39.4 0 38.05 0L38.05 0Q36.7 0 35.5 0.03 34.3 0.05 32.85 0.15L32.85 0.15Q32.45 0.15 32.25-0.18 32.05-0.5 32.05-0.85L32.05-0.85Q32.1-1.6 32.43-1.68 32.75-1.75 33.2-1.75L33.2-1.75Q34.6-1.75 35.13-2.23 35.65-2.7 35.73-3.5 35.8-4.3 35.8-5.15L35.8-5.15 35.8-15.75Q35.8-17.4 35.08-18.45 34.35-19.5 33.25-20 32.15-20.5 31-20.5L31-20.5Q29.3-20.5 28.1-19.88 26.9-19.25 26.2-18.45 25.5-17.65 25.2-17.05L25.2-17.05 25.2-5.15Q25.2-4.3 25.23-3.5 25.25-2.7 25.73-2.23 26.2-1.75 27.6-1.75L27.6-1.75Q28.1-1.75 28.4-1.68 28.7-1.6 28.75-0.85L28.75-0.85Q28.75-0.5 28.55-0.18 28.35 0.15 27.95 0.15L27.95 0.15Q26.5 0.05 25.35 0.03 24.2 0 22.85 0L22.85 0Q21.55 0 20.43 0.03 19.3 0.05 17.85 0.15L17.85 0.15Q17.45 0.15 17.25-0.18 17.05-0.5 17.05-0.85L17.05-0.85Q17.1-1.6 17.4-1.68 17.7-1.75 18.2-1.75L18.2-1.75Q19.6-1.75 20.08-2.23 20.55-2.7 20.58-3.5 20.6-4.3 20.6-5.15L20.6-5.15 20.6-15.75Q20.6-18.25 19.1-19.38 17.6-20.5 15.85-20.5L15.85-20.5Q14.1-20.5 12.9-19.88 11.7-19.25 11-18.45 10.3-17.65 10-17.05L10-17.05 10-5.15Q10-4.3 10.08-3.5 10.15-2.7 10.68-2.23 11.2-1.75 12.6-1.75L12.6-1.75Q13.05-1.75 13.38-1.68 13.7-1.6 13.75-0.85L13.75-0.85Q13.75-0.5 13.55-0.18 13.35 0.15 12.95 0.15L12.95 0.15Q11.5 0.05 10.28 0.03 9.05 0 7.7 0L7.7 0Q6.35 0 5.15 0.03 3.95 0.05 2.5 0.15ZM58.35 0.6L58.35 0.6Q54.5 0.6 51.87-1.05 49.25-2.7 47.95-5.45 46.65-8.2 46.65-11.45L46.65-11.45Q46.65-13.65 47.42-15.73 48.2-17.8 49.65-19.53 51.1-21.25 53.15-22.25 55.2-23.25 57.8-23.25L57.8-23.25Q62.4-23.25 64.72-20.88 67.05-18.5 67.4-14.85L67.4-14.85Q67.4-13.1 66.42-12.55 65.45-12 63.9-12L63.9-12 51.75-12Q51.75-9.1 52.55-6.83 53.35-4.55 55.07-3.23 56.8-1.9 59.65-1.9L59.65-1.9Q61.75-1.9 63.25-2.8 64.75-3.7 66.15-5.95L66.15-5.95Q66.55-6.45 67.25-6L67.25-6Q67.65-5.8 67.75-5.38 67.85-4.95 67.65-4.65L67.65-4.65Q66.1-2.2 63.75-0.8 61.4 0.6 58.35 0.6ZM51.75-13.9L51.75-13.9 59.9-13.9Q61.1-13.9 61.82-14.38 62.55-14.85 62.6-16L62.6-16Q62.6-18.15 61.42-19.83 60.25-21.5 57.8-21.5L57.8-21.5Q55.3-21.5 53.62-19.5 51.95-17.5 51.75-13.9ZM82.25 0.6L82.25 0.6Q79.45 0.6 77.05-0.9 74.65-2.4 73.2-5.1 71.75-7.8 71.75-11.35L71.75-11.35Q71.75-14.45 73.22-17.18 74.7-19.9 77.32-21.58 79.95-23.25 83.3-23.25L83.3-23.25Q84.9-23.25 86.45-22.88 88-22.5 89.1-21.85L89.1-21.85 89.25-21.85 89.25-29.5Q89.25-30.4 89.17-31.18 89.1-31.95 88.6-32.43 88.1-32.9 86.7-32.9L86.7-32.9Q86.25-32.9 85.87-33.02 85.5-33.15 85.5-33.9L85.5-33.9Q85.5-34.65 86.3-34.8L86.3-34.8Q88.6-35.15 89.82-35.5 91.05-35.85 91.7-36.1 92.35-36.35 92.85-36.4L92.85-36.4Q93.25-36.45 93.52-36.25 93.8-36.05 93.8-35.45L93.8-35.45 93.8-4.6Q93.8-1.65 97.7-1.65L97.7-1.65Q98.25-1.65 98.4-1.38 98.55-1.1 98.55-0.85L98.55-0.85Q98.55-0.15 97.7 0L97.7 0 89.75 0.55Q89.4 0.55 89.35 0.25 89.3-0.05 89.3-0.45L89.3-0.45 89.3-2.45 89.15-2.45Q87.9-1.15 86.02-0.28 84.15 0.6 82.25 0.6ZM83.95-1.9L83.95-1.9Q85.85-1.9 87.1-2.68 88.35-3.45 89.25-4.4L89.25-4.4 89.25-17.6Q89-18.45 88.32-19.33 87.65-20.2 86.52-20.83 85.4-21.45 83.8-21.45L83.8-21.45Q80.9-21.45 78.9-18.73 76.9-16 76.9-11.1L76.9-11.1Q76.9-8.75 77.67-6.63 78.45-4.5 80-3.2 81.55-1.9 83.95-1.9ZM101.14 0.15L101.14 0.15Q100.79 0.15 100.57-0.18 100.34-0.5 100.34-0.85L100.34-0.85Q100.44-1.6 100.74-1.68 101.04-1.75 101.54-1.75L101.54-1.75Q102.94-1.75 103.44-2.23 103.94-2.7 104.02-3.5 104.09-4.3 104.09-5.15L104.09-5.15 104.09-16.6Q104.09-17.5 104.02-18.28 103.94-19.05 103.44-19.53 102.94-20 101.54-20L101.54-20Q101.09-20 100.72-20.13 100.34-20.25 100.34-21L100.34-21Q100.34-21.75 101.14-21.9L101.14-21.9Q103.44-22.25 104.67-22.6 105.89-22.95 106.54-23.2 107.19-23.45 107.69-23.5L107.69-23.5Q108.09-23.55 108.37-23.35 108.64-23.15 108.64-22.55L108.64-22.55 108.64-5.15Q108.64-4.3 108.72-3.5 108.79-2.7 109.32-2.23 109.84-1.75 111.24-1.75L111.24-1.75Q111.69-1.75 112.02-1.68 112.34-1.6 112.39-0.85L112.39-0.85Q112.39-0.5 112.19-0.18 111.99 0.15 111.59 0.15L111.59 0.15Q110.14 0.05 108.92 0.03 107.69 0 106.34 0L106.34 0Q104.99 0 103.79 0.03 102.59 0.05 101.14 0.15ZM106.09-29.05L106.09-29.05Q104.69-29.05 103.74-29.93 102.79-30.8 102.79-32.1L102.79-32.1Q102.79-33.25 103.94-34.15 105.09-35.05 106.54-35.05L106.54-35.05Q107.79-35.05 108.59-34.18 109.39-33.3 109.39-31.95L109.39-31.95Q109.39-30.75 108.44-29.9 107.49-29.05 106.09-29.05ZM124.39 0.6L124.39 0.6Q120.54 0.6 117.97-0.78 115.39-2.15 115.39-4.75L115.39-4.75Q115.39-6.2 116.27-7.1 117.14-8 118.54-8L118.54-8Q119.44-8 120.02-7.53 120.59-7.05 120.59-6.85L120.59-6.85Q120.59-6.7 120.02-6.18 119.44-5.65 119.44-4.5L119.44-4.5Q119.44-3.1 120.77-2.18 122.09-1.25 124.79-1.25L124.79-1.25Q127.14-1.25 128.47-2.27 129.79-3.3 129.79-5.15L129.79-5.15Q129.79-6.65 128.81-7.48 127.84-8.3 126.32-8.8 124.79-9.3 123.07-9.8 121.34-10.3 119.79-11.05 118.24-11.8 117.27-13.13 116.29-14.45 116.29-16.65L116.29-16.65Q116.29-18.9 117.64-20.35 118.99-21.8 121.09-22.53 123.19-23.25 125.34-23.25L125.34-23.25Q127.19-23.25 128.84-22.73 130.49-22.2 131.56-21.15 132.64-20.1 132.64-18.5L132.64-18.5Q132.64-17.25 131.84-16.25 131.04-15.25 129.64-15.25L129.64-15.25Q128.74-15.25 128.17-15.73 127.59-16.2 127.59-16.4L127.59-16.4Q127.59-16.5 127.97-16.78 128.34-17.05 128.69-17.53 129.04-18 129.04-18.75L129.04-18.75Q128.94-20.2 127.64-20.9 126.34-21.6 124.74-21.6L124.74-21.6Q122.99-21.6 121.49-20.75 119.99-19.9 119.99-18.3L119.99-18.3Q119.99-16.85 120.62-16.05 121.24-15.25 122.62-14.68 123.99-14.1 126.19-13.4L126.19-13.4Q128.39-12.7 130.06-11.95 131.74-11.2 132.67-9.98 133.59-8.75 133.59-6.65L133.59-6.65Q133.59-4.55 132.39-2.9 131.19-1.25 129.12-0.33 127.04 0.6 124.39 0.6ZM146.44 0.85L146.44 0.85Q144.94 0.85 143.59 0.1 142.24-0.65 141.36-2.2 140.49-3.75 140.49-6.1L140.49-6.1 140.49-20.8 137.59-20.7Q137.24-20.7 137.06-20.98 136.89-21.25 136.89-21.6L136.89-21.6Q136.89-22.6 137.59-22.75L137.59-22.75Q139.44-23.1 140.39-23.93 141.34-24.75 141.86-25.9 142.39-27.05 142.84-28.4L142.84-28.4Q142.99-28.8 143.29-28.93 143.59-29.05 143.94-29.05L143.94-29.05Q144.24-29.05 144.61-28.9 144.99-28.75 144.99-28.35L144.99-28.35 144.64-22.65 150.49-23Q150.94-23.05 151.09-22.75 151.24-22.45 151.24-22.05L151.24-22.05Q151.24-21.55 151.06-21.05 150.89-20.55 150.64-20.55L150.64-20.55 145.04-20.7 145.04-5.5Q145.04-4.05 145.66-2.85 146.29-1.65 147.94-1.65L147.94-1.65Q148.49-1.65 149.19-1.75 149.89-1.85 150.69-2.2L150.69-2.2Q150.89-2.3 151.09-2.38 151.29-2.45 151.49-2.45L151.49-2.45Q151.89-2.45 152.09-2.13 152.29-1.8 152.44-1.45L152.44-1.45Q152.59-1 152.19-0.75L152.19-0.75Q150.64 0.25 149.34 0.55 148.04 0.85 146.44 0.85ZM162.99 0.6L162.99 0.6Q159.94 0.6 158.11-1.15 156.28-2.9 156.28-5.35L156.28-5.35Q156.28-7.9 157.61-9.35 158.94-10.8 161.11-11.5 163.28-12.2 165.86-12.45 168.44-12.7 170.89-12.85L170.89-12.85 170.89-16.8Q170.89-19.15 169.71-20.48 168.53-21.8 165.74-21.8L165.74-21.8Q164.34-21.8 163.11-20.9 161.89-20 161.89-18.3L161.89-18.3Q161.89-17.5 162.28-16.95 162.69-16.4 163.09-16.1 163.49-15.8 163.49-15.7L163.49-15.7Q163.49-15.5 162.91-14.98 162.34-14.45 161.34-14.45L161.34-14.45Q159.78-14.45 158.94-15.6 158.09-16.75 158.09-18.15L158.09-18.15Q158.09-20.05 159.26-21.15 160.44-22.25 162.28-22.75 164.14-23.25 166.03-23.25L166.03-23.25Q168.28-23.25 170.41-22.7 172.53-22.15 173.91-20.6 175.29-19.05 175.29-15.95L175.29-15.95 175.29-4.3Q175.34-3.8 175.54-3.1 175.74-2.4 176.31-1.88 176.89-1.35 177.89-1.35L177.89-1.35Q178.24-1.35 178.44-1.23 178.64-1.1 178.64-0.55L178.64-0.55Q178.64-0.1 178.14 0.15 177.64 0.4 176.99 0.5 176.34 0.6 175.89 0.6L175.89 0.6Q174.04 0.6 172.59-0.48 171.14-1.55 170.89-3.45L170.89-3.45Q169.78-1.45 167.61-0.43 165.44 0.6 162.99 0.6ZM164.59-2.1L164.59-2.1Q166.28-2.1 167.71-2.95 169.14-3.8 170.01-5.28 170.89-6.75 170.89-8.55L170.89-8.55 170.89-11.4Q165.74-11.05 163.53-9.75 161.34-8.45 161.34-5.5L161.34-5.5Q161.34-2.1 164.59-2.1ZM181.83 0.15L181.83 0.15Q181.48 0.15 181.26-0.18 181.03-0.5 181.03-0.85L181.03-0.85Q181.13-1.6 181.43-1.68 181.73-1.75 182.23-1.75L182.23-1.75Q183.63-1.75 184.13-2.23 184.63-2.7 184.71-3.5 184.78-4.3 184.78-5.15L184.78-5.15 184.78-16.6Q184.78-17.5 184.71-18.28 184.63-19.05 184.13-19.53 183.63-20 182.23-20L182.23-20Q181.78-20 181.41-20.13 181.03-20.25 181.03-21L181.03-21Q181.03-21.75 181.83-21.9L181.83-21.9Q184.13-22.25 185.36-22.6 186.58-22.95 187.21-23.2 187.83-23.45 188.33-23.5L188.33-23.5Q188.73-23.55 189.01-23.35 189.28-23.15 189.28-22.55L189.28-22.55 189.28-19.45 189.43-19.45Q191.13-21.1 192.93-22.18 194.73-23.25 196.23-23.25L196.23-23.25Q197.98-23.25 198.91-21.95 199.83-20.65 199.83-19.2L199.83-19.2Q199.83-17.95 199.03-16.78 198.23-15.6 196.63-15.6L196.63-15.6Q195.83-15.6 195.36-15.93 194.88-16.25 194.83-16.4L194.83-16.4Q194.83-16.5 195.31-17 195.78-17.5 195.78-18.25L195.78-18.25Q195.78-19.15 195.31-19.7 194.83-20.25 194.03-20.25L194.03-20.25Q193.18-20.25 191.86-19.4 190.53-18.55 189.33-17.35L189.33-17.35 189.33-5.15Q189.33-4.3 189.41-3.5 189.48-2.7 190.01-2.23 190.53-1.75 191.93-1.75L191.93-1.75Q192.38-1.75 192.71-1.68 193.03-1.6 193.08-0.85L193.08-0.85Q193.08-0.5 192.88-0.18 192.68 0.15 192.28 0.15L192.28 0.15Q190.83 0.05 189.61 0.03 188.38 0 187.03 0L187.03 0Q185.68 0 184.48 0.03 183.28 0.05 181.83 0.15Z" opacity="1" transform="matrix(1,0,0,1,0,0)" fill="#0284c7" class="wordmark-text-0" data-fill-palette-color="primary" id="text-0"></path></svg></g></svg></g></svg></g></svg></g></svg></g></svg></g></svg></g><g><path d="M0 123.6c0-68.262 55.338-123.6 123.6-123.6 58.487 0 107.486 40.623 120.32 95.193h-2.13c-12.791-53.415-60.854-93.121-118.19-93.121-67.118 0-121.528 54.41-121.528 121.528 0 67.118 54.41 121.528 121.528 121.528 57.336 0 105.398-39.706 118.19-93.121h2.13c-12.834 54.57-61.833 95.193-120.32 95.193-68.262 0-123.6-55.338-123.6-123.6z" fill="#0284c7" stroke="transparent" data-fill-palette-color="tertiary"></path></g></svg></g><defs></defs></svg><rect width="395.52" height="247.2" fill="none" stroke="none" visibility="hidden"></rect></g></svg></g></svg>